<svg xmlns="http://www.w3.org/2000/svg" xmlns:xlink="http://www.w3.org/1999/xlink" width="500" zoomAndPan="magnify" viewBox="0 0 375 374.999991" height="500" preserveAspectRatio="xMidYMid meet" version="1.0"><defs><g/><clipPath id="87330e665e"><path d="M 80.71875 1.515625 L 294.46875 1.515625 L 294.46875 165.015625 L 80.71875 165.015625 Z M 80.71875 1.515625 " clip-rule="nonzero"/></clipPath><clipPath id="d9f099bf1b"><path d="M 210.191406 54.414062 L 239.441406 54.414062 L 239.441406 112.164062 L 210.191406 112.164062 Z M 210.191406 54.414062 " clip-rule="nonzero"/></clipPath><clipPath id="28a460eac1"><path d="M 239.105469 105.441406 L 239.105469 112.242188 C 223.136719 112.242188 210.191406 99.300781 210.191406 83.332031 C 210.191406 67.367188 223.136719 54.417969 239.105469 54.417969 L 239.105469 61.21875 C 226.894531 61.21875 216.992188 71.121094 216.992188 83.332031 C 216.992188 95.542969 226.890625 105.441406 239.105469 105.441406 Z M 239.105469 105.441406 " clip-rule="nonzero"/></clipPath><clipPath id="12a784784e"><path d="M 135.816406 54.414062 L 164.726562 54.414062 L 164.726562 112.164062 L 135.816406 112.164062 Z M 135.816406 54.414062 " clip-rule="nonzero"/></clipPath><clipPath id="6234689dbc"><path d="M 135.816406 105.441406 L 135.816406 112.242188 C 151.785156 112.242188 164.726562 99.300781 164.726562 83.332031 C 164.726562 67.367188 151.785156 54.417969 135.816406 54.417969 L 135.816406 61.21875 C 148.027344 61.21875 157.925781 71.121094 157.925781 83.332031 C 157.925781 95.542969 148.027344 105.441406 135.816406 105.441406 Z M 135.816406 105.441406 " clip-rule="nonzero"/></clipPath></defs><g fill="#ffffff" fill-opacity="1"><g transform="translate(80.720346, 252.986203)"><g><path d="M 32.421875 1.296875 C 29.078125 1.296875 25.925781 0.851562 22.96875 -0.03125 C 20.007812 -0.925781 17.320312 -2.210938 14.90625 -3.890625 C 12.488281 -5.578125 10.398438 -7.609375 8.640625 -9.984375 C 6.890625 -12.367188 5.539062 -15.046875 4.59375 -18.015625 C 3.644531 -20.984375 3.171875 -24.210938 3.171875 -27.703125 C 3.171875 -31.179688 3.644531 -34.40625 4.59375 -37.375 C 5.539062 -40.34375 6.890625 -43.015625 8.640625 -45.390625 C 10.398438 -47.773438 12.488281 -49.8125 14.90625 -51.5 C 17.320312 -53.1875 20.003906 -54.472656 22.953125 -55.359375 C 25.898438 -56.242188 29.046875 -56.6875 32.390625 -56.6875 C 36.910156 -56.6875 41.023438 -55.894531 44.734375 -54.3125 C 48.453125 -52.726562 51.609375 -50.53125 54.203125 -47.71875 C 54.898438 -47.019531 54.84375 -46.34375 54.03125 -45.6875 L 48.1875 -41.546875 C 47.488281 -40.972656 46.8125 -41.03125 46.15625 -41.71875 C 44.445312 -43.425781 42.421875 -44.78125 40.078125 -45.78125 C 37.734375 -46.78125 35.171875 -47.28125 32.390625 -47.28125 C 29.691406 -47.28125 27.1875 -46.816406 24.875 -45.890625 C 22.570312 -44.960938 20.554688 -43.640625 18.828125 -41.921875 C 17.097656 -40.203125 15.75 -38.140625 14.78125 -35.734375 C 13.820312 -33.335938 13.34375 -30.671875 13.34375 -27.734375 C 13.34375 -24.773438 13.820312 -22.09375 14.78125 -19.6875 C 15.75 -17.28125 17.097656 -15.210938 18.828125 -13.484375 C 20.554688 -11.753906 22.578125 -10.425781 24.890625 -9.5 C 27.210938 -8.570312 29.734375 -8.109375 32.453125 -8.109375 C 35.222656 -8.109375 37.78125 -8.609375 40.125 -9.609375 C 42.46875 -10.609375 44.476562 -11.960938 46.15625 -13.671875 C 46.8125 -14.335938 47.488281 -14.394531 48.1875 -13.84375 L 54.03125 -9.734375 C 54.863281 -9.085938 54.96875 -8.441406 54.34375 -7.796875 C 51.769531 -4.953125 48.609375 -2.722656 44.859375 -1.109375 C 41.109375 0.492188 36.960938 1.296875 32.421875 1.296875 Z M 32.421875 1.296875 "/></g></g></g><g fill="#ffffff" fill-opacity="1"><g transform="translate(141.720092, 252.986203)"><g><path d="M 14.140625 0 L 6.953125 0 C 5.972656 0 5.484375 -0.492188 5.484375 -1.484375 L 5.484375 -53.921875 C 5.484375 -54.898438 5.972656 -55.390625 6.953125 -55.390625 L 14.140625 -55.390625 C 15.117188 -55.390625 15.609375 -54.898438 15.609375 -53.921875 L 15.609375 -1.484375 C 15.609375 -0.492188 15.117188 0 14.140625 0 Z M 14.140625 0 "/></g></g></g><g fill="#ffffff" fill-opacity="1"><g transform="translate(166.803749, 252.986203)"><g><path d="M 13.953125 0 L 7.03125 0 C 6.039062 0 5.546875 -0.492188 5.546875 -1.484375 L 5.546875 -54.125 C 5.546875 -55.445312 5.910156 -56.253906 6.640625 -56.546875 C 7.378906 -56.835938 8.21875 -56.515625 9.15625 -55.578125 L 40.75 -22.75 L 40.75 -53.921875 C 40.75 -54.898438 41.242188 -55.390625 42.234375 -55.390625 L 49.1875 -55.390625 C 50.175781 -55.390625 50.671875 -54.898438 50.671875 -53.921875 L 50.671875 -1.296875 C 50.671875 0.0234375 50.285156 0.816406 49.515625 1.078125 C 48.742188 1.347656 47.851562 0.988281 46.84375 0 L 15.4375 -33.5 L 15.4375 -1.484375 C 15.4375 -0.492188 14.941406 0 13.953125 0 Z M 13.953125 0 "/></g></g></g><g fill="#ffffff" fill-opacity="1"><g transform="translate(227.046234, 252.986203)"><g><path d="M 36.828125 0 L 6.953125 0 C 5.972656 0 5.484375 -0.492188 5.484375 -1.484375 L 5.484375 -53.921875 C 5.484375 -54.898438 5.972656 -55.390625 6.953125 -55.390625 L 36.828125 -55.390625 C 37.804688 -55.390625 38.296875 -54.898438 38.296875 -53.921875 L 38.296875 -47.890625 C 38.296875 -46.910156 37.804688 -46.421875 36.828125 -46.421875 L 15.609375 -46.421875 L 15.609375 -26.828125 L 33.9375 -26.828125 C 34.925781 -26.828125 35.421875 -26.335938 35.421875 -25.359375 L 35.421875 -19.734375 C 35.421875 -18.742188 34.925781 -18.25 33.9375 -18.25 L 15.609375 -18.25 L 15.609375 -8.984375 L 36.828125 -8.984375 C 37.804688 -8.984375 38.296875 -8.488281 38.296875 -7.5 L 38.296875 -1.484375 C 38.296875 -0.492188 37.804688 0 36.828125 0 Z M 36.828125 0 "/></g></g></g><g fill="#ffffff" fill-opacity="1"><g transform="translate(80.720346, 323.486199)"><g><path d="M 14.03125 0 L 7.03125 0 C 6.039062 0 5.546875 -0.492188 5.546875 -1.484375 L 5.546875 -54.203125 C 5.546875 -55.140625 5.726562 -55.816406 6.09375 -56.234375 C 6.457031 -56.660156 6.921875 -56.8125 7.484375 -56.6875 C 8.046875 -56.570312 8.601562 -56.140625 9.15625 -55.390625 L 32.28125 -24.734375 L 55.46875 -55.390625 C 56.019531 -56.140625 56.570312 -56.570312 57.125 -56.6875 C 57.675781 -56.8125 58.140625 -56.660156 58.515625 -56.234375 C 58.890625 -55.816406 59.078125 -55.140625 59.078125 -54.203125 L 59.078125 -1.484375 C 59.078125 -0.492188 58.582031 0 57.59375 0 L 50.59375 0 C 49.613281 0 49.125 -0.492188 49.125 -1.484375 L 49.125 -30.9375 L 33.328125 -10.421875 C 33.015625 -9.984375 32.671875 -9.765625 32.296875 -9.765625 C 31.921875 -9.765625 31.566406 -9.984375 31.234375 -10.421875 L 15.5 -30.875 L 15.5 -1.484375 C 15.5 -0.492188 15.007812 0 14.03125 0 Z M 14.03125 0 "/></g></g></g><g fill="#ffffff" fill-opacity="1"><g transform="translate(149.328822, 323.486199)"><g><path d="M 28.3125 -55.390625 L 52.21875 -1.734375 C 52.4375 -1.203125 52.441406 -0.78125 52.234375 -0.46875 C 52.035156 -0.15625 51.660156 0 51.109375 0 L 43.171875 0 C 42.328125 0 41.757812 -0.382812 41.46875 -1.15625 L 38.34375 -8.9375 L 15.078125 -8.9375 L 11.9375 -1.15625 C 11.644531 -0.382812 11.082031 0 10.25 0 L 2.265625 0 C 1.742188 0 1.375 -0.15625 1.15625 -0.46875 C 0.9375 -0.78125 0.945312 -1.203125 1.1875 -1.734375 L 25.0625 -55.390625 C 25.5 -56.328125 26.046875 -56.796875 26.703125 -56.796875 C 27.367188 -56.796875 27.90625 -56.328125 28.3125 -55.390625 Z M 26.71875 -37.765625 L 18.359375 -17.0625 L 35.046875 -17.0625 Z M 26.71875 -37.765625 "/></g></g></g><g fill="#ffffff" fill-opacity="1"><g transform="translate(206.758596, 323.486199)"><g><path d="M 11.859375 0 L 2.953125 0 C 2.359375 0 1.96875 -0.171875 1.78125 -0.515625 C 1.601562 -0.867188 1.671875 -1.285156 1.984375 -1.765625 L 18.640625 -27.875 L 2.234375 -53.625 C 1.921875 -54.101562 1.851562 -54.515625 2.03125 -54.859375 C 2.21875 -55.210938 2.609375 -55.390625 3.203125 -55.390625 L 12.046875 -55.390625 C 12.429688 -55.390625 12.765625 -55.316406 13.046875 -55.171875 C 13.335938 -55.035156 13.582031 -54.757812 13.78125 -54.34375 L 24.734375 -35.15625 L 35.671875 -54.34375 C 35.859375 -54.757812 36.097656 -55.035156 36.390625 -55.171875 C 36.679688 -55.316406 37.019531 -55.390625 37.40625 -55.390625 L 46.265625 -55.390625 C 46.867188 -55.390625 47.257812 -55.210938 47.4375 -54.859375 C 47.625 -54.515625 47.5625 -54.101562 47.25 -53.625 L 30.828125 -27.875 L 47.453125 -1.765625 C 47.765625 -1.285156 47.832031 -0.867188 47.65625 -0.515625 C 47.476562 -0.171875 47.085938 0 46.484375 0 L 37.578125 0 C 37.191406 0 36.859375 -0.078125 36.578125 -0.234375 C 36.304688 -0.390625 36.0625 -0.660156 35.84375 -1.046875 L 24.734375 -20.484375 L 13.59375 -1.046875 C 13.40625 -0.660156 13.164062 -0.390625 12.875 -0.234375 C 12.582031 -0.078125 12.242188 0 11.859375 0 Z M 11.859375 0 "/></g></g></g><g fill="#ffffff" fill-opacity="1"><g transform="translate(260.257787, 323.486199)"><g><path d="M 12.765625 0.828125 C 11.609375 0.828125 10.554688 0.546875 9.609375 -0.015625 C 8.660156 -0.578125 7.894531 -1.335938 7.3125 -2.296875 C 6.738281 -3.265625 6.453125 -4.335938 6.453125 -5.515625 C 6.453125 -6.671875 6.734375 -7.726562 7.296875 -8.6875 C 7.867188 -9.65625 8.632812 -10.425781 9.59375 -11 C 10.550781 -11.570312 11.609375 -11.859375 12.765625 -11.859375 C 13.941406 -11.859375 15.007812 -11.570312 15.96875 -11 C 16.9375 -10.425781 17.703125 -9.65625 18.265625 -8.6875 C 18.828125 -7.726562 19.109375 -6.671875 19.109375 -5.515625 C 19.109375 -4.316406 18.820312 -3.234375 18.25 -2.265625 C 17.675781 -1.304688 16.90625 -0.550781 15.9375 0 C 14.976562 0.550781 13.921875 0.828125 12.765625 0.828125 Z M 12.765625 0.828125 "/></g></g></g><g fill="#ffffff" fill-opacity="1"><g transform="translate(80.720346, 367.123452)"><g><path d="M 4.234375 0 L 2.671875 0 C 2.296875 0 2.109375 -0.1875 2.109375 -0.5625 L 2.109375 -20.71875 C 2.109375 -21.101562 2.296875 -21.296875 2.671875 -21.296875 L 8.296875 -21.296875 C 11.171875 -21.296875 13.28125 -20.671875 14.625 -19.421875 C 15.96875 -18.171875 16.640625 -16.363281 16.640625 -14 C 16.640625 -11.582031 15.960938 -9.753906 14.609375 -8.515625 C 13.253906 -7.273438 11.207031 -6.65625 8.46875 -6.65625 L 4.796875 -6.65625 L 4.796875 -0.5625 C 4.796875 -0.1875 4.609375 0 4.234375 0 Z M 4.796875 -18.75 L 4.796875 -9.1875 L 8.125 -9.1875 C 8.40625 -9.1875 8.742188 -9.195312 9.140625 -9.21875 C 9.546875 -9.238281 9.96875 -9.289062 10.40625 -9.375 C 10.84375 -9.46875 11.273438 -9.613281 11.703125 -9.8125 C 12.128906 -10.007812 12.507812 -10.28125 12.84375 -10.625 C 13.1875 -10.976562 13.460938 -11.425781 13.671875 -11.96875 C 13.878906 -12.519531 13.984375 -13.191406 13.984375 -13.984375 C 13.984375 -14.773438 13.878906 -15.441406 13.671875 -15.984375 C 13.472656 -16.523438 13.203125 -16.972656 12.859375 -17.328125 C 12.523438 -17.679688 12.144531 -17.953125 11.71875 -18.140625 C 11.300781 -18.335938 10.867188 -18.476562 10.421875 -18.5625 C 9.984375 -18.65625 9.5625 -18.707031 9.15625 -18.71875 C 8.757812 -18.738281 8.414062 -18.75 8.125 -18.75 Z M 4.796875 -18.75 "/></g></g></g><g fill="#ffffff" fill-opacity="1"><g transform="translate(100.939844, 367.123452)"><g><path d="M 12.9375 -7.4375 L 16.390625 -0.671875 C 16.484375 -0.472656 16.488281 -0.3125 16.40625 -0.1875 C 16.320312 -0.0625 16.175781 0 15.96875 0 L 14.109375 0 C 13.816406 0 13.597656 -0.144531 13.453125 -0.4375 L 10.265625 -6.75 C 9.984375 -6.71875 9.691406 -6.691406 9.390625 -6.671875 C 9.097656 -6.660156 8.789062 -6.65625 8.46875 -6.65625 L 4.796875 -6.65625 L 4.796875 -0.5625 C 4.796875 -0.1875 4.609375 0 4.234375 0 L 2.671875 0 C 2.296875 0 2.109375 -0.1875 2.109375 -0.5625 L 2.109375 -20.71875 C 2.109375 -21.101562 2.296875 -21.296875 2.671875 -21.296875 L 8.296875 -21.296875 C 11.171875 -21.296875 13.28125 -20.671875 14.625 -19.421875 C 15.96875 -18.171875 16.640625 -16.363281 16.640625 -14 C 16.640625 -10.707031 15.40625 -8.519531 12.9375 -7.4375 Z M 4.796875 -9.1875 L 8.125 -9.1875 C 8.40625 -9.1875 8.742188 -9.195312 9.140625 -9.21875 C 9.546875 -9.238281 9.96875 -9.289062 10.40625 -9.375 C 10.84375 -9.46875 11.273438 -9.613281 11.703125 -9.8125 C 12.128906 -10.007812 12.507812 -10.28125 12.84375 -10.625 C 13.1875 -10.976562 13.460938 -11.425781 13.671875 -11.96875 C 13.878906 -12.519531 13.984375 -13.191406 13.984375 -13.984375 C 13.984375 -14.773438 13.878906 -15.441406 13.671875 -15.984375 C 13.472656 -16.523438 13.203125 -16.972656 12.859375 -17.328125 C 12.523438 -17.679688 12.144531 -17.953125 11.71875 -18.140625 C 11.300781 -18.335938 10.867188 -18.476562 10.421875 -18.5625 C 9.984375 -18.65625 9.5625 -18.707031 9.15625 -18.71875 C 8.757812 -18.738281 8.414062 -18.75 8.125 -18.75 L 4.796875 -18.75 Z M 4.796875 -9.1875 "/></g></g></g><g fill="#ffffff" fill-opacity="1"><g transform="translate(121.589147, 367.123452)"><g><path d="M 12.28125 0.4375 C 11.050781 0.4375 9.878906 0.265625 8.765625 -0.078125 C 7.648438 -0.421875 6.632812 -0.914062 5.71875 -1.5625 C 4.800781 -2.21875 4.003906 -3.003906 3.328125 -3.921875 C 2.648438 -4.835938 2.125 -5.859375 1.75 -6.984375 C 1.382812 -8.117188 1.203125 -9.335938 1.203125 -10.640625 C 1.203125 -11.941406 1.382812 -13.160156 1.75 -14.296875 C 2.125 -15.429688 2.648438 -16.453125 3.328125 -17.359375 C 4.003906 -18.273438 4.800781 -19.054688 5.71875 -19.703125 C 6.632812 -20.359375 7.648438 -20.859375 8.765625 -21.203125 C 9.878906 -21.554688 11.050781 -21.734375 12.28125 -21.734375 C 13.507812 -21.734375 14.679688 -21.554688 15.796875 -21.203125 C 16.910156 -20.859375 17.925781 -20.359375 18.84375 -19.703125 C 19.769531 -19.054688 20.570312 -18.273438 21.25 -17.359375 C 21.925781 -16.453125 22.445312 -15.429688 22.8125 -14.296875 C 23.1875 -13.160156 23.375 -11.941406 23.375 -10.640625 C 23.375 -9.335938 23.1875 -8.117188 22.8125 -6.984375 C 22.445312 -5.859375 21.925781 -4.835938 21.25 -3.921875 C 20.570312 -3.003906 19.769531 -2.21875 18.84375 -1.5625 C 17.925781 -0.914062 16.910156 -0.421875 15.796875 -0.078125 C 14.691406 0.265625 13.519531 0.4375 12.28125 0.4375 Z M 12.28125 -2.171875 C 13.4375 -2.171875 14.515625 -2.375 15.515625 -2.78125 C 16.523438 -3.1875 17.414062 -3.765625 18.1875 -4.515625 C 18.957031 -5.273438 19.554688 -6.171875 19.984375 -7.203125 C 20.421875 -8.242188 20.640625 -9.390625 20.640625 -10.640625 C 20.640625 -11.898438 20.421875 -13.046875 19.984375 -14.078125 C 19.554688 -15.117188 18.957031 -16.015625 18.1875 -16.765625 C 17.414062 -17.515625 16.523438 -18.09375 15.515625 -18.5 C 14.515625 -18.90625 13.4375 -19.109375 12.28125 -19.109375 C 11.125 -19.109375 10.039062 -18.90625 9.03125 -18.5 C 8.019531 -18.09375 7.128906 -17.515625 6.359375 -16.765625 C 5.597656 -16.015625 5 -15.117188 4.5625 -14.078125 C 4.132812 -13.046875 3.921875 -11.898438 3.921875 -10.640625 C 3.921875 -9.398438 4.132812 -8.257812 4.5625 -7.21875 C 5 -6.1875 5.601562 -5.289062 6.375 -4.53125 C 7.144531 -3.78125 8.03125 -3.195312 9.03125 -2.78125 C 10.039062 -2.375 11.125 -2.171875 12.28125 -2.171875 Z M 12.28125 -2.171875 "/></g></g></g><g fill="#ffffff" fill-opacity="1"><g transform="translate(148.7409, 367.123452)"><g><path d="M 7.375 0 L 2.671875 0 C 2.296875 0 2.109375 -0.1875 2.109375 -0.5625 L 2.109375 -20.71875 C 2.109375 -21.101562 2.296875 -21.296875 2.671875 -21.296875 L 7.375 -21.296875 C 9.070312 -21.296875 10.601562 -21.054688 11.96875 -20.578125 C 13.332031 -20.097656 14.492188 -19.40625 15.453125 -18.5 C 16.421875 -17.59375 17.160156 -16.484375 17.671875 -15.171875 C 18.191406 -13.867188 18.453125 -12.375 18.453125 -10.6875 C 18.453125 -9.019531 18.191406 -7.523438 17.671875 -6.203125 C 17.160156 -4.890625 16.425781 -3.769531 15.46875 -2.84375 C 14.507812 -1.914062 13.347656 -1.207031 11.984375 -0.71875 C 10.617188 -0.238281 9.082031 0 7.375 0 Z M 4.84375 -18.75 L 4.84375 -2.53125 L 7.328125 -2.53125 C 9.066406 -2.53125 10.5625 -2.847656 11.8125 -3.484375 C 13.070312 -4.117188 14.039062 -5.046875 14.71875 -6.265625 C 15.394531 -7.484375 15.734375 -8.960938 15.734375 -10.703125 C 15.734375 -12.453125 15.394531 -13.921875 14.71875 -15.109375 C 14.039062 -16.304688 13.070312 -17.210938 11.8125 -17.828125 C 10.5625 -18.441406 9.066406 -18.75 7.328125 -18.75 Z M 4.84375 -18.75 "/></g></g></g><g fill="#ffffff" fill-opacity="1"><g transform="translate(171.012348, 367.123452)"><g><path d="M 9.265625 0.4375 C 8.265625 0.4375 7.320312 0.296875 6.4375 0.015625 C 5.5625 -0.253906 4.785156 -0.675781 4.109375 -1.25 C 3.441406 -1.832031 2.914062 -2.578125 2.53125 -3.484375 C 2.144531 -4.398438 1.953125 -5.5 1.953125 -6.78125 L 1.953125 -20.71875 C 1.953125 -21.101562 2.140625 -21.296875 2.515625 -21.296875 L 4.125 -21.296875 C 4.507812 -21.296875 4.703125 -21.101562 4.703125 -20.71875 L 4.703125 -7.03125 C 4.703125 -5.8125 4.890625 -4.84375 5.265625 -4.125 C 5.648438 -3.40625 6.179688 -2.894531 6.859375 -2.59375 C 7.546875 -2.289062 8.347656 -2.140625 9.265625 -2.140625 C 10.191406 -2.140625 11 -2.289062 11.6875 -2.59375 C 12.375 -2.894531 12.898438 -3.40625 13.265625 -4.125 C 13.640625 -4.84375 13.828125 -5.8125 13.828125 -7.03125 L 13.828125 -20.71875 C 13.828125 -21.101562 14.019531 -21.296875 14.40625 -21.296875 L 16.015625 -21.296875 C 16.390625 -21.296875 16.578125 -21.101562 16.578125 -20.71875 L 16.578125 -6.78125 C 16.578125 -5.5 16.382812 -4.398438 16 -3.484375 C 15.625 -2.578125 15.097656 -1.832031 14.421875 -1.25 C 13.753906 -0.675781 12.976562 -0.253906 12.09375 0.015625 C 11.207031 0.296875 10.265625 0.4375 9.265625 0.4375 Z M 9.265625 0.4375 "/></g></g></g><g fill="#ffffff" fill-opacity="1"><g transform="translate(192.105319, 367.123452)"><g><path d="M 12.25 0.4375 C 11.03125 0.4375 9.867188 0.265625 8.765625 -0.078125 C 7.660156 -0.421875 6.648438 -0.914062 5.734375 -1.5625 C 4.816406 -2.207031 4.015625 -2.984375 3.328125 -3.890625 C 2.648438 -4.804688 2.125 -5.832031 1.75 -6.96875 C 1.382812 -8.101562 1.203125 -9.328125 1.203125 -10.640625 C 1.203125 -11.953125 1.390625 -13.175781 1.765625 -14.3125 C 2.140625 -15.457031 2.664062 -16.484375 3.34375 -17.390625 C 4.019531 -18.296875 4.816406 -19.070312 5.734375 -19.71875 C 6.648438 -20.375 7.65625 -20.875 8.75 -21.21875 C 9.851562 -21.5625 11.015625 -21.734375 12.234375 -21.734375 C 13.773438 -21.734375 15.203125 -21.460938 16.515625 -20.921875 C 17.835938 -20.378906 18.992188 -19.632812 19.984375 -18.6875 C 20.128906 -18.5625 20.191406 -18.429688 20.171875 -18.296875 C 20.160156 -18.160156 20.09375 -18.023438 19.96875 -17.890625 L 18.734375 -16.90625 C 18.472656 -16.664062 18.207031 -16.671875 17.9375 -16.921875 C 17.175781 -17.609375 16.3125 -18.144531 15.34375 -18.53125 C 14.382812 -18.914062 13.347656 -19.109375 12.234375 -19.109375 C 11.085938 -19.109375 10.015625 -18.90625 9.015625 -18.5 C 8.015625 -18.09375 7.128906 -17.515625 6.359375 -16.765625 C 5.597656 -16.023438 5 -15.132812 4.5625 -14.09375 C 4.132812 -13.0625 3.921875 -11.921875 3.921875 -10.671875 C 3.921875 -9.410156 4.132812 -8.257812 4.5625 -7.21875 C 5 -6.1875 5.601562 -5.289062 6.375 -4.53125 C 7.144531 -3.78125 8.03125 -3.195312 9.03125 -2.78125 C 10.039062 -2.375 11.125 -2.171875 12.28125 -2.171875 C 13.375 -2.171875 14.40625 -2.367188 15.375 -2.765625 C 16.34375 -3.160156 17.195312 -3.691406 17.9375 -4.359375 C 18.195312 -4.609375 18.460938 -4.613281 18.734375 -4.375 L 19.96875 -3.421875 C 20.269531 -3.148438 20.296875 -2.890625 20.046875 -2.640625 C 19.066406 -1.691406 17.90625 -0.941406 16.5625 -0.390625 C 15.226562 0.160156 13.789062 0.4375 12.25 0.4375 Z M 12.25 0.4375 "/></g></g></g><g fill="#ffffff" fill-opacity="1"><g transform="translate(215.73549, 367.123452)"><g><path d="M 7.890625 0 L 6.296875 0 C 5.910156 0 5.71875 -0.1875 5.71875 -0.5625 L 5.71875 -18.75 L 0.90625 -18.75 C 0.519531 -18.75 0.328125 -18.941406 0.328125 -19.328125 L 0.328125 -20.71875 C 0.328125 -21.101562 0.519531 -21.296875 0.90625 -21.296875 L 13.28125 -21.296875 C 13.65625 -21.296875 13.84375 -21.101562 13.84375 -20.71875 L 13.84375 -19.328125 C 13.84375 -18.941406 13.65625 -18.75 13.28125 -18.75 L 8.453125 -18.75 L 8.453125 -0.5625 C 8.453125 -0.1875 8.265625 0 7.890625 0 Z M 7.890625 0 "/></g></g></g><g fill="#ffffff" fill-opacity="1"><g transform="translate(232.488861, 367.123452)"><g><path d="M 4.25 0 L 2.671875 0 C 2.296875 0 2.109375 -0.1875 2.109375 -0.5625 L 2.109375 -20.71875 C 2.109375 -21.101562 2.296875 -21.296875 2.671875 -21.296875 L 4.25 -21.296875 C 4.632812 -21.296875 4.828125 -21.101562 4.828125 -20.71875 L 4.828125 -0.5625 C 4.828125 -0.1875 4.632812 0 4.25 0 Z M 4.25 0 "/></g></g></g><g fill="#ffffff" fill-opacity="1"><g transform="translate(241.963367, 367.123452)"><g><path d="M 12.28125 0.4375 C 11.050781 0.4375 9.878906 0.265625 8.765625 -0.078125 C 7.648438 -0.421875 6.632812 -0.914062 5.71875 -1.5625 C 4.800781 -2.21875 4.003906 -3.003906 3.328125 -3.921875 C 2.648438 -4.835938 2.125 -5.859375 1.75 -6.984375 C 1.382812 -8.117188 1.203125 -9.335938 1.203125 -10.640625 C 1.203125 -11.941406 1.382812 -13.160156 1.75 -14.296875 C 2.125 -15.429688 2.648438 -16.453125 3.328125 -17.359375 C 4.003906 -18.273438 4.800781 -19.054688 5.71875 -19.703125 C 6.632812 -20.359375 7.648438 -20.859375 8.765625 -21.203125 C 9.878906 -21.554688 11.050781 -21.734375 12.28125 -21.734375 C 13.507812 -21.734375 14.679688 -21.554688 15.796875 -21.203125 C 16.910156 -20.859375 17.925781 -20.359375 18.84375 -19.703125 C 19.769531 -19.054688 20.570312 -18.273438 21.25 -17.359375 C 21.925781 -16.453125 22.445312 -15.429688 22.8125 -14.296875 C 23.1875 -13.160156 23.375 -11.941406 23.375 -10.640625 C 23.375 -9.335938 23.1875 -8.117188 22.8125 -6.984375 C 22.445312 -5.859375 21.925781 -4.835938 21.25 -3.921875 C 20.570312 -3.003906 19.769531 -2.21875 18.84375 -1.5625 C 17.925781 -0.914062 16.910156 -0.421875 15.796875 -0.078125 C 14.691406 0.265625 13.519531 0.4375 12.28125 0.4375 Z M 12.28125 -2.171875 C 13.4375 -2.171875 14.515625 -2.375 15.515625 -2.78125 C 16.523438 -3.1875 17.414062 -3.765625 18.1875 -4.515625 C 18.957031 -5.273438 19.554688 -6.171875 19.984375 -7.203125 C 20.421875 -8.242188 20.640625 -9.390625 20.640625 -10.640625 C 20.640625 -11.898438 20.421875 -13.046875 19.984375 -14.078125 C 19.554688 -15.117188 18.957031 -16.015625 18.1875 -16.765625 C 17.414062 -17.515625 16.523438 -18.09375 15.515625 -18.5 C 14.515625 -18.90625 13.4375 -19.109375 12.28125 -19.109375 C 11.125 -19.109375 10.039062 -18.90625 9.03125 -18.5 C 8.019531 -18.09375 7.128906 -17.515625 6.359375 -16.765625 C 5.597656 -16.015625 5 -15.117188 4.5625 -14.078125 C 4.132812 -13.046875 3.921875 -11.898438 3.921875 -10.640625 C 3.921875 -9.398438 4.132812 -8.257812 4.5625 -7.21875 C 5 -6.1875 5.601562 -5.289062 6.375 -4.53125 C 7.144531 -3.78125 8.03125 -3.195312 9.03125 -2.78125 C 10.039062 -2.375 11.125 -2.171875 12.28125 -2.171875 Z M 12.28125 -2.171875 "/></g></g></g><g fill="#ffffff" fill-opacity="1"><g transform="translate(269.115125, 367.123452)"><g><path d="M 4.25 0 L 2.703125 0 C 2.328125 0 2.140625 -0.1875 2.140625 -0.5625 L 2.140625 -20.8125 C 2.140625 -21.15625 2.207031 -21.410156 2.34375 -21.578125 C 2.476562 -21.742188 2.65625 -21.804688 2.875 -21.765625 C 3.09375 -21.734375 3.304688 -21.585938 3.515625 -21.328125 L 15.8125 -5.859375 L 15.8125 -20.71875 C 15.8125 -21.101562 16.003906 -21.296875 16.390625 -21.296875 L 17.9375 -21.296875 C 18.3125 -21.296875 18.5 -21.101562 18.5 -20.71875 L 18.5 -0.484375 C 18.5 -0.140625 18.425781 0.113281 18.28125 0.28125 C 18.144531 0.445312 17.96875 0.507812 17.75 0.46875 C 17.53125 0.425781 17.3125 0.269531 17.09375 0 L 4.8125 -15.546875 L 4.8125 -0.5625 C 4.8125 -0.1875 4.625 0 4.25 0 Z M 4.25 0 "/></g></g></g><g clip-path="url(#87330e665e)"><path fill="#ffffff" d="M 91.453125 1.515625 C 85.410156 1.515625 80.78125 6.488281 80.78125 12.1875 L 80.78125 154.472656 C 80.78125 160.167969 85.410156 165.144531 91.453125 165.144531 L 283.539062 165.144531 C 289.582031 165.144531 294.210938 160.167969 294.210938 154.472656 L 294.210938 12.1875 C 294.210938 6.488281 289.582031 1.515625 283.539062 1.515625 Z M 91.453125 8.628906 L 283.539062 8.628906 C 285.679688 8.628906 287.097656 10.40625 287.097656 12.1875 L 287.097656 154.472656 C 287.097656 156.613281 285.679688 158.03125 283.539062 158.03125 L 91.453125 158.03125 C 89.3125 158.03125 87.894531 156.25 87.894531 154.472656 L 87.894531 12.1875 C 87.894531 10.046875 89.3125 8.628906 91.453125 8.628906 Z M 98.566406 15.742188 C 96.425781 15.742188 95.011719 17.160156 95.011719 19.300781 L 95.011719 26.414062 C 95.011719 28.554688 96.425781 29.972656 98.566406 29.972656 C 100.707031 29.972656 102.125 28.554688 102.125 26.414062 L 102.125 19.300781 C 102.125 17.160156 100.707031 15.742188 98.566406 15.742188 Z M 116.351562 15.742188 C 114.214844 15.742188 112.796875 17.160156 112.796875 19.300781 L 112.796875 26.414062 C 112.796875 28.554688 114.214844 29.972656 116.351562 29.972656 C 118.492188 29.972656 119.910156 28.554688 119.910156 26.414062 L 119.910156 19.300781 C 119.910156 17.160156 118.492188 15.742188 116.351562 15.742188 Z M 134.136719 15.742188 C 132 15.742188 130.582031 17.160156 130.582031 19.300781 L 130.582031 26.414062 C 130.582031 28.554688 132 29.972656 134.136719 29.972656 C 136.277344 29.972656 137.695312 28.554688 137.695312 26.414062 L 137.695312 19.300781 C 137.695312 17.160156 136.277344 15.742188 134.136719 15.742188 Z M 151.925781 15.742188 C 149.785156 15.742188 148.367188 17.160156 148.367188 19.300781 L 148.367188 26.414062 C 148.367188 28.554688 149.785156 29.972656 151.925781 29.972656 C 154.0625 29.972656 155.480469 28.554688 155.480469 26.414062 L 155.480469 19.300781 C 155.480469 17.160156 154.0625 15.742188 151.925781 15.742188 Z M 169.710938 15.742188 C 167.570312 15.742188 166.152344 17.160156 166.152344 19.300781 L 166.152344 26.414062 C 166.152344 28.554688 167.570312 29.972656 169.710938 29.972656 C 171.851562 29.972656 173.265625 28.554688 173.265625 26.414062 L 173.265625 19.300781 C 173.265625 17.160156 171.851562 15.742188 169.710938 15.742188 Z M 187.496094 15.742188 C 185.355469 15.742188 183.9375 17.160156 183.9375 19.300781 L 183.9375 26.414062 C 183.9375 28.554688 185.355469 29.972656 187.496094 29.972656 C 189.636719 29.972656 191.054688 28.554688 191.054688 26.414062 L 191.054688 19.300781 C 191.054688 17.160156 189.636719 15.742188 187.496094 15.742188 Z M 205.28125 15.742188 C 203.140625 15.742188 201.722656 17.160156 201.722656 19.300781 L 201.722656 26.414062 C 201.722656 28.554688 203.140625 29.972656 205.28125 29.972656 C 207.421875 29.972656 208.839844 28.554688 208.839844 26.414062 L 208.839844 19.300781 C 208.839844 17.160156 207.421875 15.742188 205.28125 15.742188 Z M 223.066406 15.742188 C 220.925781 15.742188 219.511719 17.160156 219.511719 19.300781 L 219.511719 26.414062 C 219.511719 28.554688 220.925781 29.972656 223.066406 29.972656 C 225.207031 29.972656 226.625 28.554688 226.625 26.414062 L 226.625 19.300781 C 226.625 17.160156 225.207031 15.742188 223.066406 15.742188 Z M 240.851562 15.742188 C 238.714844 15.742188 237.296875 17.160156 237.296875 19.300781 L 237.296875 26.414062 C 237.296875 28.554688 238.714844 29.972656 240.851562 29.972656 C 242.992188 29.972656 244.410156 28.554688 244.410156 26.414062 L 244.410156 19.300781 C 244.410156 17.160156 242.992188 15.742188 240.851562 15.742188 Z M 258.640625 15.742188 C 256.5 15.742188 255.082031 17.160156 255.082031 19.300781 L 255.082031 26.414062 C 255.082031 28.554688 256.5 29.972656 258.640625 29.972656 C 260.777344 29.972656 262.195312 28.554688 262.195312 26.414062 L 262.195312 19.300781 C 262.195312 17.160156 260.777344 15.742188 258.640625 15.742188 Z M 276.425781 15.742188 C 274.285156 15.742188 272.867188 17.160156 272.867188 19.300781 L 272.867188 26.414062 C 272.867188 28.554688 274.285156 29.972656 276.425781 29.972656 C 278.5625 29.972656 279.980469 28.554688 279.980469 26.414062 L 279.980469 19.300781 C 279.980469 17.160156 278.5625 15.742188 276.425781 15.742188 Z M 98.566406 37.085938 C 96.425781 37.085938 95.011719 38.503906 95.011719 40.644531 C 95.011719 42.785156 96.425781 44.199219 98.566406 44.199219 L 130.582031 44.199219 L 130.582031 122.457031 L 98.566406 122.457031 C 96.425781 122.457031 95.011719 123.875 95.011719 126.015625 C 95.011719 128.15625 96.425781 129.574219 98.566406 129.574219 L 276.425781 129.574219 C 278.5625 129.574219 279.980469 128.15625 279.980469 126.015625 C 279.980469 123.875 278.5625 122.457031 276.425781 122.457031 L 244.410156 122.457031 L 244.410156 44.199219 L 276.425781 44.199219 C 278.5625 44.199219 279.980469 42.785156 279.980469 40.644531 C 279.980469 38.503906 278.5625 37.085938 276.425781 37.085938 Z M 137.695312 44.199219 L 237.296875 44.199219 L 237.296875 122.457031 L 137.695312 122.457031 Z M 98.566406 136.6875 C 96.425781 136.6875 95.011719 138.105469 95.011719 140.242188 L 95.011719 147.359375 C 95.011719 149.496094 96.425781 150.914062 98.566406 150.914062 C 100.707031 150.914062 102.125 149.496094 102.125 147.359375 L 102.125 140.242188 C 102.125 138.105469 100.707031 136.6875 98.566406 136.6875 Z M 116.351562 136.6875 C 114.214844 136.6875 112.796875 138.105469 112.796875 140.242188 L 112.796875 147.359375 C 112.796875 149.496094 114.214844 150.914062 116.351562 150.914062 C 118.492188 150.914062 119.910156 149.496094 119.910156 147.359375 L 119.910156 140.242188 C 119.910156 138.105469 118.492188 136.6875 116.351562 136.6875 Z M 134.136719 136.6875 C 132 136.6875 130.582031 138.105469 130.582031 140.242188 L 130.582031 147.359375 C 130.582031 149.496094 132 150.914062 134.136719 150.914062 C 136.277344 150.914062 137.695312 149.496094 137.695312 147.359375 L 137.695312 140.242188 C 137.695312 138.105469 136.277344 136.6875 134.136719 136.6875 Z M 151.925781 136.6875 C 149.785156 136.6875 148.367188 138.105469 148.367188 140.242188 L 148.367188 147.359375 C 148.367188 149.496094 149.785156 150.914062 151.925781 150.914062 C 154.0625 150.914062 155.480469 149.496094 155.480469 147.359375 L 155.480469 140.242188 C 155.480469 138.105469 154.0625 136.6875 151.925781 136.6875 Z M 169.710938 136.6875 C 167.570312 136.6875 166.152344 138.105469 166.152344 140.242188 L 166.152344 147.359375 C 166.152344 149.496094 167.570312 150.914062 169.710938 150.914062 C 171.851562 150.914062 173.265625 149.496094 173.265625 147.359375 L 173.265625 140.242188 C 173.265625 138.105469 171.851562 136.6875 169.710938 136.6875 Z M 187.496094 136.6875 C 185.355469 136.6875 183.9375 138.105469 183.9375 140.242188 L 183.9375 147.359375 C 183.9375 149.496094 185.355469 150.914062 187.496094 150.914062 C 189.636719 150.914062 191.054688 149.496094 191.054688 147.359375 L 191.054688 140.242188 C 191.054688 138.105469 189.636719 136.6875 187.496094 136.6875 Z M 205.28125 136.6875 C 203.140625 136.6875 201.722656 138.105469 201.722656 140.242188 L 201.722656 147.359375 C 201.722656 149.496094 203.140625 150.914062 205.28125 150.914062 C 207.421875 150.914062 208.839844 149.496094 208.839844 147.359375 L 208.839844 140.242188 C 208.839844 138.105469 207.421875 136.6875 205.28125 136.6875 Z M 223.066406 136.6875 C 220.925781 136.6875 219.511719 138.105469 219.511719 140.242188 L 219.511719 147.359375 C 219.511719 149.496094 220.925781 150.914062 223.066406 150.914062 C 225.207031 150.914062 226.625 149.496094 226.625 147.359375 L 226.625 140.242188 C 226.625 138.105469 225.207031 136.6875 223.066406 136.6875 Z M 240.851562 136.6875 C 238.714844 136.6875 237.296875 138.105469 237.296875 140.242188 L 237.296875 147.359375 C 237.296875 149.496094 238.714844 150.914062 240.851562 150.914062 C 242.992188 150.914062 244.410156 149.496094 244.410156 147.359375 L 244.410156 140.242188 C 244.410156 138.105469 242.992188 136.6875 240.851562 136.6875 Z M 258.640625 136.6875 C 256.5 136.6875 255.082031 138.105469 255.082031 140.242188 L 255.082031 147.359375 C 255.082031 149.496094 256.5 150.914062 258.640625 150.914062 C 260.777344 150.914062 262.195312 149.496094 262.195312 147.359375 L 262.195312 140.242188 C 262.195312 138.105469 260.777344 136.6875 258.640625 136.6875 Z M 276.425781 136.6875 C 274.285156 136.6875 272.867188 138.105469 272.867188 140.242188 L 272.867188 147.359375 C 272.867188 149.496094 274.285156 150.914062 276.425781 150.914062 C 278.5625 150.914062 279.980469 149.496094 279.980469 147.359375 L 279.980469 140.242188 C 279.980469 138.105469 278.5625 136.6875 276.425781 136.6875 Z M 276.425781 136.6875 " fill-opacity="1" fill-rule="nonzero"/></g><g clip-path="url(#d9f099bf1b)"><g clip-path="url(#28a460eac1)"><path fill="#ffffff" d="M 210.191406 54.417969 L 210.191406 112.164062 L 239.105469 112.164062 L 239.105469 54.417969 Z M 210.191406 54.417969 " fill-opacity="1" fill-rule="nonzero"/></g></g><g clip-path="url(#12a784784e)"><g clip-path="url(#6234689dbc)"><path fill="#ffffff" d="M 164.726562 54.417969 L 164.726562 112.164062 L 135.816406 112.164062 L 135.816406 54.417969 Z M 164.726562 54.417969 " fill-opacity="1" fill-rule="nonzero"/></g></g><path stroke-linecap="round" transform="matrix(0, 0.75, -0.75, 0, 190.869484, 40.951829)" fill="none" stroke-linejoin="miter" d="M 4.501729 4.497854 L 107.184027 4.497854 " stroke="#ffffff" stroke-width="9" stroke-opacity="1" stroke-miterlimit="4"/></svg>